<svg id="visual" viewBox="0 0 900 600" width="900" height="600" xmlns="http://www.w3.org/2000/svg" xmlns:xlink="http://www.w3.org/1999/xlink" version="1.1"><rect x="0" y="0" width="900" height="600" fill="#28FFBF"></rect><defs><linearGradient id="grad1_0" x1="33.3%" y1="100%" x2="100%" y2="0%"><stop offset="20%" stop-color="#bcffb9" stop-opacity="1"></stop><stop offset="80%" stop-color="#bcffb9" stop-opacity="1"></stop></linearGradient></defs><defs><linearGradient id="grad1_1" x1="33.3%" y1="100%" x2="100%" y2="0%"><stop offset="20%" stop-color="#bcffb9" stop-opacity="1"></stop><stop offset="80%" stop-color="#9effb7" stop-opacity="1"></stop></linearGradient></defs><defs><linearGradient id="grad1_2" x1="33.3%" y1="100%" x2="100%" y2="0%"><stop offset="20%" stop-color="#75ffb9" stop-opacity="1"></stop><stop offset="80%" stop-color="#9effb7" stop-opacity="1"></stop></linearGradient></defs><defs><linearGradient id="grad1_3" x1="33.3%" y1="100%" x2="100%" y2="0%"><stop offset="20%" stop-color="#75ffb9" stop-opacity="1"></stop><stop offset="80%" stop-color="#28ffbf" stop-opacity="1"></stop></linearGradient></defs><defs><linearGradient id="grad2_0" x1="0%" y1="100%" x2="66.7%" y2="0%"><stop offset="20%" stop-color="#bcffb9" stop-opacity="1"></stop><stop offset="80%" stop-color="#bcffb9" stop-opacity="1"></stop></linearGradient></defs><defs><linearGradient id="grad2_1" x1="0%" y1="100%" x2="66.7%" y2="0%"><stop offset="20%" stop-color="#9effb7" stop-opacity="1"></stop><stop offset="80%" stop-color="#bcffb9" stop-opacity="1"></stop></linearGradient></defs><defs><linearGradient id="grad2_2" x1="0%" y1="100%" x2="66.7%" y2="0%"><stop offset="20%" stop-color="#9effb7" stop-opacity="1"></stop><stop offset="80%" stop-color="#75ffb9" stop-opacity="1"></stop></linearGradient></defs><defs><linearGradient id="grad2_3" x1="0%" y1="100%" x2="66.7%" y2="0%"><stop offset="20%" stop-color="#28ffbf" stop-opacity="1"></stop><stop offset="80%" stop-color="#75ffb9" stop-opacity="1"></stop></linearGradient></defs><g transform="translate(900, 600)"><path d="M-459.7 0C-456.6 -40.1 -453.5 -80.2 -442.4 -118.5C-431.3 -156.9 -412.3 -193.4 -388.8 -224.5C-365.4 -255.6 -337.5 -281.2 -311.8 -311.8C-286.1 -342.5 -262.6 -378.2 -229.9 -398.1C-197.1 -418 -155 -422.2 -115.2 -429.8C-75.3 -437.5 -37.7 -448.6 0 -459.7L0 0Z" fill="#59ffbb"></path><path d="M-344.8 0C-342.4 -30.1 -340.1 -60.2 -331.8 -88.9C-323.5 -117.7 -309.2 -145.1 -291.6 -168.4C-274 -191.7 -253.1 -210.9 -233.9 -233.9C-214.6 -256.9 -197 -283.6 -172.4 -298.6C-147.8 -313.5 -116.3 -316.7 -86.4 -322.4C-56.5 -328.1 -28.2 -336.4 0 -344.8L0 0Z" fill="#8bffb7"></path><path d="M-229.9 0C-228.3 -20.1 -226.7 -40.1 -221.2 -59.3C-215.7 -78.4 -206.1 -96.7 -194.4 -112.3C-182.7 -127.8 -168.8 -140.6 -155.9 -155.9C-143.1 -171.2 -131.3 -189.1 -114.9 -199.1C-98.5 -209 -77.5 -211.1 -57.6 -214.9C-37.7 -218.7 -18.8 -224.3 0 -229.9L0 0Z" fill="#aeffb7"></path><path d="M-114.9 0C-114.1 -10 -113.4 -20.1 -110.6 -29.6C-107.8 -39.2 -103.1 -48.4 -97.2 -56.1C-91.3 -63.9 -84.4 -70.3 -78 -78C-71.5 -85.6 -65.7 -94.5 -57.5 -99.5C-49.3 -104.5 -38.8 -105.6 -28.8 -107.5C-18.8 -109.4 -9.4 -112.1 0 -114.9L0 0Z" fill="#bcffb9"></path></g><g transform="translate(0, 0)"><path d="M459.7 0C455.5 39.6 451.3 79.2 442.4 118.5C433.5 157.9 419.8 197 398.1 229.9C376.4 262.7 346.8 289.4 318.2 318.2C289.6 347 262.2 377.8 228 394.9C193.8 412 152.8 415.5 113.6 424C74.5 432.6 37.2 446.1 0 459.7L0 0Z" fill="#59ffbb"></path><path d="M344.8 0C341.6 29.7 338.5 59.4 331.8 88.9C325.1 118.4 314.8 147.7 298.6 172.4C282.3 197.1 260.1 217.1 238.6 238.6C217.2 260.2 196.7 283.3 171 296.2C145.3 309 114.6 311.6 85.2 318C55.9 324.4 27.9 334.6 0 344.8L0 0Z" fill="#8bffb7"></path><path d="M229.9 0C227.8 19.8 225.7 39.6 221.2 59.3C216.7 78.9 209.9 98.5 199.1 114.9C188.2 131.4 173.4 144.7 159.1 159.1C144.8 173.5 131.1 188.9 114 197.5C96.9 206 76.4 207.8 56.8 212C37.2 216.3 18.6 223.1 0 229.9L0 0Z" fill="#aeffb7"></path><path d="M114.9 0C113.9 9.9 112.8 19.8 110.6 29.6C108.4 39.5 104.9 49.2 99.5 57.5C94.1 65.7 86.7 72.4 79.5 79.5C72.4 86.7 65.6 94.4 57 98.7C48.4 103 38.2 103.9 28.4 106C18.6 108.1 9.3 111.5 0 114.9L0 0Z" fill="#bcffb9"></path></g></svg>